<mxfile host="app.diagrams.net" modified="2021-02-14T15:29:22.879Z" agent="5.0 (Windows NT 10.0; Win64; x64) AppleWebKit/537.36 (KHTML, like Gecko) Chrome/88.0.4324.150 Safari/537.36" etag="SzlqtFlQPmE5quGiERfW" version="14.3.1" type="github">
  <diagram id="kgpKYQtTHZ0yAKxKKP6v" name="Page-1">
    <mxGraphModel dx="782" dy="469" grid="1" gridSize="10" guides="1" tooltips="1" connect="1" arrows="1" fold="1" page="1" pageScale="1" pageWidth="850" pageHeight="1100" math="0" shadow="0">
      <root>
        <mxCell id="0" />
        <mxCell id="1" parent="0" />
        <mxCell id="5XnnLcP_Ek7YT_p4IgLv-1" value="xref: libcore/dalvik/src/main/java/dalvik/system/DexClassLoader.java" style="swimlane;fontStyle=1;align=center;verticalAlign=top;childLayout=stackLayout;horizontal=1;startSize=26;horizontalStack=0;resizeParent=1;resizeParentMax=0;resizeLast=0;collapsible=1;marginBottom=0;" vertex="1" parent="1">
          <mxGeometry x="70" y="50" width="420" height="200" as="geometry">
            <mxRectangle x="40" y="60" width="420" height="26" as="alternateBounds" />
          </mxGeometry>
        </mxCell>
        <mxCell id="5XnnLcP_Ek7YT_p4IgLv-2" value="extends BaseDexClassLoader" style="text;strokeColor=none;fillColor=none;align=left;verticalAlign=top;spacingLeft=4;spacingRight=4;overflow=hidden;rotatable=0;points=[[0,0.5],[1,0.5]];portConstraint=eastwest;" vertex="1" parent="5XnnLcP_Ek7YT_p4IgLv-1">
          <mxGeometry y="26" width="420" height="26" as="geometry" />
        </mxCell>
        <mxCell id="5XnnLcP_Ek7YT_p4IgLv-3" value="" style="line;strokeWidth=1;fillColor=none;align=left;verticalAlign=middle;spacingTop=-1;spacingLeft=3;spacingRight=3;rotatable=0;labelPosition=right;points=[];portConstraint=eastwest;" vertex="1" parent="5XnnLcP_Ek7YT_p4IgLv-1">
          <mxGeometry y="52" width="420" height="8" as="geometry" />
        </mxCell>
        <mxCell id="5XnnLcP_Ek7YT_p4IgLv-4" value="dexPath：dex文件源码目录&#xa;optimizedDirectory：优化以后odex生成目录&#xa;librarySearchPath：需要的本地so库的搜索路径&#xa;parent：父加载器&#xa;&#xa;public DexClassLoader(String dexPath, String optimizedDirectory,&#xa;  String libraryPath, ClassLoader parent) {&#xa; super(dexPath, new File(optimizedDirectory), libraryPath, parent);&#xa;}" style="text;strokeColor=none;fillColor=none;align=left;verticalAlign=top;spacingLeft=4;spacingRight=4;overflow=hidden;rotatable=0;points=[[0,0.5],[1,0.5]];portConstraint=eastwest;" vertex="1" parent="5XnnLcP_Ek7YT_p4IgLv-1">
          <mxGeometry y="60" width="420" height="140" as="geometry" />
        </mxCell>
        <mxCell id="5XnnLcP_Ek7YT_p4IgLv-5" value="xref: libcore/dalvik/src/main/java/dalvik/system/BaseDexClassLoader.java" style="swimlane;fontStyle=1;align=center;verticalAlign=top;childLayout=stackLayout;horizontal=1;startSize=26;horizontalStack=0;resizeParent=1;resizeParentMax=0;resizeLast=0;collapsible=1;marginBottom=0;" vertex="1" parent="1">
          <mxGeometry x="55" y="290" width="450" height="150" as="geometry" />
        </mxCell>
        <mxCell id="5XnnLcP_Ek7YT_p4IgLv-6" value="extends ClassLoader&#xa;private final DexPathList pathList;" style="text;strokeColor=none;fillColor=none;align=left;verticalAlign=top;spacingLeft=4;spacingRight=4;overflow=hidden;rotatable=0;points=[[0,0.5],[1,0.5]];portConstraint=eastwest;" vertex="1" parent="5XnnLcP_Ek7YT_p4IgLv-5">
          <mxGeometry y="26" width="450" height="34" as="geometry" />
        </mxCell>
        <mxCell id="5XnnLcP_Ek7YT_p4IgLv-7" value="" style="line;strokeWidth=1;fillColor=none;align=left;verticalAlign=middle;spacingTop=-1;spacingLeft=3;spacingRight=3;rotatable=0;labelPosition=right;points=[];portConstraint=eastwest;" vertex="1" parent="5XnnLcP_Ek7YT_p4IgLv-5">
          <mxGeometry y="60" width="450" height="8" as="geometry" />
        </mxCell>
        <mxCell id="5XnnLcP_Ek7YT_p4IgLv-8" value="public BaseDexClassLoader(String dexPath, File optimizedDirectory,&#xa;  String libraryPath, ClassLoader parent) {&#xa; super(parent);&#xa; this.pathList = new DexPathList(this, dexPath, libraryPath, optimizedDirectory);&#xa;}" style="text;strokeColor=none;fillColor=none;align=left;verticalAlign=top;spacingLeft=4;spacingRight=4;overflow=hidden;rotatable=0;points=[[0,0.5],[1,0.5]];portConstraint=eastwest;" vertex="1" parent="5XnnLcP_Ek7YT_p4IgLv-5">
          <mxGeometry y="68" width="450" height="82" as="geometry" />
        </mxCell>
      </root>
    </mxGraphModel>
  </diagram>
</mxfile>
